<svg width="299" height="356" viewBox="0 0 299 356" fill="none" xmlns="http://www.w3.org/2000/svg">
<g clip-path="url(#clip0_851_19853)">
<mask id="mask0_851_19853" style="mask-type:alpha" maskUnits="userSpaceOnUse" x="0" y="0" width="298" height="356">
<path d="M165.993 5.31135L282.622 77.0451C292.09 82.8682 297.857 93.1871 297.857 104.302V251.361C297.857 262.476 292.09 272.795 282.622 278.618L165.993 350.351C155.711 356.675 142.746 356.675 132.464 350.351L15.8349 278.618C6.36733 272.795 0.599609 262.476 0.599609 251.361L0.599609 104.302C0.599609 93.1871 6.36733 82.8682 15.8349 77.0451L132.464 5.31135C142.746 -1.01264 155.711 -1.01264 165.993 5.31135Z" fill="white"/>
</mask>
<g mask="url(#mask0_851_19853)">
<path d="M165.993 5.31135L282.622 77.0451C292.09 82.8682 297.857 93.1871 297.857 104.302V251.361C297.857 262.476 292.09 272.795 282.622 278.618L165.993 350.351C155.711 356.675 142.746 356.675 132.464 350.351L15.8349 278.618C6.36733 272.795 0.599609 262.476 0.599609 251.361L0.599609 104.302C0.599609 93.1871 6.36733 82.8682 15.8349 77.0451L132.464 5.31135C142.746 -1.01264 155.711 -1.01264 165.993 5.31135Z" fill="#FCFBF3"/>
<path d="M298.6 226.908H-25.2285V397.888H298.6V226.908Z" fill="#022A1C"/>
</g>
<line x1="-5.31152" y1="227.769" x2="303.769" y2="227.769" stroke="#022A1C"/>
<g clip-path="url(#clip1_851_19853)">
<path d="M118.922 275.119H131.857V277.532H126.771V291.098H123.974V277.532H118.911V275.119H118.922ZM131.304 279.528H133.695V281.761H133.74C133.819 281.445 133.965 281.141 134.18 280.848C134.394 280.554 134.653 280.273 134.958 280.036C135.262 279.788 135.6 279.596 135.973 279.438C136.345 279.291 136.728 279.213 137.112 279.213C137.405 279.213 137.619 279.224 137.732 279.235C137.845 279.246 137.957 279.269 138.081 279.28V281.739C137.901 281.705 137.721 281.682 137.529 281.66C137.337 281.637 137.157 281.626 136.976 281.626C136.548 281.626 136.142 281.716 135.758 281.885C135.375 282.054 135.048 282.314 134.766 282.641C134.484 282.979 134.259 283.385 134.089 283.881C133.92 284.377 133.841 284.941 133.841 285.584V291.087H131.293V279.528H131.304ZM149.798 291.098H147.295V289.486H147.25C146.934 290.072 146.471 290.535 145.851 290.884C145.231 291.234 144.599 291.414 143.957 291.414C142.434 291.414 141.329 291.042 140.653 290.286C139.976 289.531 139.638 288.392 139.638 286.87V279.528H142.186V286.621C142.186 287.636 142.378 288.358 142.773 288.775C143.156 289.193 143.709 289.407 144.408 289.407C144.949 289.407 145.389 289.328 145.75 289.159C146.111 288.99 146.404 288.775 146.618 288.493C146.844 288.223 147.001 287.884 147.103 287.501C147.204 287.118 147.25 286.7 147.25 286.249V279.54H149.798V291.098ZM154.14 287.388C154.219 288.133 154.501 288.651 154.985 288.956C155.482 289.249 156.068 289.407 156.756 289.407C156.993 289.407 157.263 289.384 157.568 289.35C157.872 289.317 158.166 289.238 158.425 289.136C158.696 289.035 158.91 288.877 159.09 288.674C159.259 288.471 159.338 288.212 159.327 287.884C159.316 287.557 159.192 287.287 158.966 287.084C158.741 286.87 158.459 286.712 158.109 286.576C157.76 286.452 157.365 286.34 156.914 286.249C156.463 286.159 156.012 286.058 155.549 285.956C155.076 285.855 154.613 285.719 154.174 285.573C153.734 285.426 153.339 285.223 152.989 284.964C152.64 284.716 152.358 284.389 152.155 283.994C151.941 283.599 151.839 283.114 151.839 282.528C151.839 281.896 151.997 281.378 152.302 280.949C152.606 280.521 153.001 280.182 153.463 279.923C153.937 279.664 154.455 279.483 155.031 279.37C155.606 279.269 156.158 279.213 156.677 279.213C157.275 279.213 157.85 279.28 158.391 279.404C158.932 279.528 159.429 279.731 159.868 280.024C160.308 280.306 160.669 280.679 160.962 281.13C161.255 281.581 161.436 282.133 161.515 282.776H158.853C158.729 282.167 158.459 281.75 158.019 281.547C157.579 281.333 157.072 281.231 156.508 281.231C156.327 281.231 156.113 281.242 155.865 281.276C155.617 281.31 155.391 281.366 155.166 281.445C154.952 281.524 154.771 281.648 154.613 281.806C154.467 281.964 154.388 282.167 154.388 282.426C154.388 282.742 154.501 282.99 154.715 283.182C154.929 283.374 155.211 283.532 155.561 283.667C155.91 283.791 156.305 283.904 156.756 283.994C157.207 284.084 157.669 284.186 158.143 284.287C158.605 284.389 159.056 284.524 159.508 284.671C159.959 284.817 160.353 285.02 160.703 285.28C161.052 285.539 161.334 285.855 161.549 286.238C161.763 286.621 161.876 287.106 161.876 287.67C161.876 288.358 161.718 288.933 161.402 289.418C161.086 289.892 160.68 290.286 160.184 290.58C159.688 290.873 159.124 291.098 158.515 291.234C157.906 291.369 157.297 291.437 156.7 291.437C155.967 291.437 155.29 291.358 154.67 291.189C154.05 291.019 153.508 290.771 153.057 290.444C152.606 290.106 152.245 289.689 151.986 289.193C151.726 288.696 151.591 288.099 151.569 287.411H154.14V287.388ZM162.552 279.528H164.481V276.055H167.029V279.528H169.33V281.434H167.029V287.614C167.029 287.884 167.041 288.11 167.063 288.313C167.086 288.505 167.142 288.674 167.221 288.809C167.3 288.945 167.424 289.046 167.593 289.114C167.762 289.181 167.977 289.215 168.27 289.215C168.45 289.215 168.631 289.215 168.811 289.204C168.991 289.193 169.172 289.17 169.352 289.125V291.098C169.07 291.132 168.788 291.155 168.529 291.189C168.258 291.222 167.988 291.234 167.706 291.234C167.029 291.234 166.488 291.166 166.082 291.042C165.676 290.918 165.349 290.726 165.123 290.478C164.887 290.23 164.74 289.926 164.65 289.553C164.571 289.181 164.514 288.753 164.503 288.279V281.457H162.575V279.528H162.552ZM171.134 279.528H173.547V281.096H173.592C173.953 280.419 174.449 279.946 175.092 279.652C175.735 279.359 176.423 279.213 177.178 279.213C178.092 279.213 178.881 279.37 179.558 279.697C180.235 280.013 180.798 280.453 181.249 281.017C181.701 281.581 182.028 282.235 182.253 282.979C182.479 283.723 182.591 284.524 182.591 285.37C182.591 286.148 182.49 286.903 182.287 287.625C182.084 288.358 181.779 289.001 181.373 289.565C180.968 290.129 180.449 290.568 179.817 290.907C179.186 291.245 178.453 291.414 177.596 291.414C177.224 291.414 176.851 291.38 176.479 291.313C176.107 291.245 175.746 291.132 175.408 290.986C175.07 290.839 174.743 290.647 174.461 290.411C174.168 290.174 173.931 289.903 173.728 289.599H173.683V295.372H171.134V279.528V279.528ZM180.043 285.325C180.043 284.806 179.975 284.298 179.84 283.802C179.705 283.306 179.502 282.878 179.231 282.494C178.96 282.111 178.622 281.806 178.227 281.581C177.821 281.355 177.359 281.231 176.84 281.231C175.769 281.231 174.957 281.603 174.416 282.348C173.874 283.092 173.604 284.084 173.604 285.325C173.604 285.911 173.671 286.452 173.818 286.949C173.965 287.445 174.168 287.873 174.461 288.234C174.743 288.595 175.081 288.877 175.476 289.08C175.87 289.294 176.333 289.396 176.851 289.396C177.438 289.396 177.923 289.272 178.329 289.035C178.735 288.798 179.062 288.482 179.321 288.11C179.58 287.727 179.772 287.298 179.885 286.813C179.986 286.328 180.043 285.832 180.043 285.325ZM184.542 275.119H187.091V277.532H184.542V275.119ZM184.542 279.528H187.091V291.098H184.542V279.528ZM189.369 275.119H191.917V291.098H189.369V275.119ZM199.732 291.414C198.808 291.414 197.984 291.256 197.263 290.952C196.541 290.647 195.932 290.219 195.425 289.689C194.928 289.148 194.545 288.505 194.286 287.76C194.026 287.016 193.891 286.193 193.891 285.302C193.891 284.422 194.026 283.611 194.286 282.866C194.545 282.122 194.928 281.479 195.425 280.938C195.921 280.397 196.541 279.979 197.263 279.675C197.984 279.37 198.808 279.213 199.732 279.213C200.657 279.213 201.48 279.37 202.202 279.675C202.924 279.979 203.533 280.408 204.04 280.938C204.536 281.479 204.92 282.122 205.179 282.866C205.438 283.611 205.574 284.422 205.574 285.302C205.574 286.193 205.438 287.016 205.179 287.76C204.92 288.505 204.536 289.148 204.04 289.689C203.544 290.23 202.924 290.647 202.202 290.952C201.48 291.256 200.657 291.414 199.732 291.414ZM199.732 289.396C200.296 289.396 200.792 289.272 201.21 289.035C201.627 288.798 201.965 288.482 202.236 288.099C202.506 287.715 202.698 287.276 202.833 286.791C202.958 286.306 203.025 285.81 203.025 285.302C203.025 284.806 202.958 284.321 202.833 283.825C202.709 283.329 202.506 282.9 202.236 282.517C201.965 282.133 201.627 281.829 201.21 281.592C200.792 281.355 200.296 281.231 199.732 281.231C199.168 281.231 198.672 281.355 198.255 281.592C197.838 281.829 197.499 282.145 197.229 282.517C196.958 282.9 196.766 283.329 196.631 283.825C196.507 284.321 196.439 284.806 196.439 285.302C196.439 285.81 196.507 286.306 196.631 286.791C196.755 287.276 196.958 287.715 197.229 288.099C197.499 288.482 197.838 288.798 198.255 289.035C198.672 289.283 199.168 289.396 199.732 289.396ZM206.318 279.528H208.246V276.055H210.795V279.528H213.095V281.434H210.795V287.614C210.795 287.884 210.806 288.11 210.829 288.313C210.851 288.505 210.908 288.674 210.987 288.809C211.066 288.945 211.19 289.046 211.359 289.114C211.528 289.181 211.742 289.215 212.035 289.215C212.216 289.215 212.396 289.215 212.577 289.204C212.757 289.193 212.938 289.17 213.118 289.125V291.098C212.836 291.132 212.554 291.155 212.295 291.189C212.024 291.222 211.753 291.234 211.472 291.234C210.795 291.234 210.254 291.166 209.848 291.042C209.442 290.918 209.115 290.726 208.889 290.478C208.652 290.23 208.506 289.926 208.416 289.553C208.337 289.181 208.28 288.753 208.269 288.279V281.457H206.341V279.528H206.318Z" fill="white"/>
<path d="M115.945 275.119H104.262L100.653 264L97.0335 275.119L85.3506 275.108L94.8119 281.987L91.192 293.094L100.653 286.227L110.103 293.094L106.495 281.987L115.945 275.119Z" fill="#00B67A"/>
<path d="M107.307 284.501L106.495 281.987L100.653 286.227L107.307 284.501Z" fill="#005128"/>
</g>
<path d="M29.5634 103.9H39.2384C43.3184 112.42 46.5734 120.085 49.0034 126.895H49.4534C51.8834 120.085 55.1384 112.42 59.2184 103.9H68.8934V139H60.7934V135.94C60.7934 129.07 60.9434 123.115 61.2434 118.075H60.8834C59.6834 121.255 58.4834 124.21 57.2834 126.94C56.1134 129.67 54.6134 133.03 52.7834 137.02C52.6634 137.29 52.5284 137.59 52.3784 137.92C52.2284 138.25 52.0634 138.61 51.8834 139H46.5734C46.3934 138.61 46.2284 138.25 46.0784 137.92C45.9284 137.59 45.7934 137.29 45.6734 137.02C43.8434 133.03 42.3284 129.67 41.1284 126.94C39.9584 124.21 38.7734 121.255 37.5734 118.075H37.2134C37.5134 122.965 37.6634 128.92 37.6634 135.94V139H29.5634V103.9ZM82.1441 139.765C80.6441 139.765 79.2341 139.48 77.9141 138.91C76.5941 138.34 75.5291 137.485 74.7191 136.345C73.9091 135.175 73.5041 133.765 73.5041 132.115C73.5041 129.955 74.1941 128.305 75.5741 127.165C76.9841 125.995 78.8891 125.155 81.2891 124.645C83.6891 124.135 85.3091 123.775 86.1491 123.565C87.0191 123.325 87.6341 123.07 87.9941 122.8C88.3841 122.5 88.5791 122.095 88.5791 121.585C88.5791 120.835 88.2941 120.25 87.7241 119.83C87.1541 119.38 86.3891 119.155 85.4291 119.155C84.4691 119.155 83.6141 119.44 82.8641 120.01C82.1141 120.55 81.5591 121.435 81.1991 122.665L74.2241 120.325C74.9741 117.775 76.3691 115.93 78.4091 114.79C80.4791 113.65 82.9091 113.08 85.6991 113.08C89.0891 113.08 91.6691 113.875 93.4391 115.465C95.2391 117.025 96.1391 119.275 96.1391 122.215V131.125C96.1391 133.015 96.1991 134.53 96.3191 135.67C96.4691 136.78 96.6791 137.89 96.9491 139H89.4791C89.2691 138.43 89.1641 137.86 89.1641 137.29C89.1641 136.9 89.2091 136.465 89.2991 135.985H88.9841C88.3841 137.215 87.4541 138.16 86.1941 138.82C84.9641 139.45 83.6141 139.765 82.1441 139.765ZM81.7391 131.89C81.7391 132.61 81.9791 133.15 82.4591 133.51C82.9691 133.87 83.6291 134.05 84.4391 134.05C85.6991 134.05 86.7041 133.63 87.4541 132.79C88.2341 131.95 88.6241 130.93 88.6241 129.73V128.2L85.2941 129.055L84.0791 129.37C82.5191 129.79 81.7391 130.63 81.7391 131.89ZM101.488 113.8H108.913C108.913 113.95 108.913 114.415 108.913 115.195C108.913 115.945 108.838 116.8 108.688 117.76H109.093C109.783 116.35 110.683 115.225 111.793 114.385C112.903 113.515 114.238 113.08 115.798 113.08C116.548 113.08 117.313 113.215 118.093 113.485V121.945C117.193 121.645 116.173 121.495 115.033 121.495C113.203 121.495 111.838 121.96 110.938 122.89C110.068 123.79 109.528 124.84 109.318 126.04C109.108 127.21 109.003 128.59 109.003 130.18V139H101.488V113.8ZM138.008 148.9C138.008 142.96 138.068 138.43 138.188 135.31C136.328 138.28 133.778 139.765 130.538 139.765C128.378 139.765 126.473 139.165 124.823 137.965C123.173 136.735 121.898 135.1 120.998 133.06C120.128 130.99 119.693 128.71 119.693 126.22C119.693 123.55 120.188 121.225 121.178 119.245C122.198 117.265 123.563 115.75 125.273 114.7C126.983 113.62 128.858 113.08 130.898 113.08C132.608 113.08 134.048 113.44 135.218 114.16C136.418 114.88 137.348 115.84 138.008 117.04H138.323C138.173 116.2 138.098 115.48 138.098 114.88C138.098 114.28 138.098 113.92 138.098 113.8H145.523V148.9H138.008ZM127.433 126.355C127.433 128.125 127.928 129.595 128.918 130.765C129.908 131.935 131.213 132.52 132.833 132.52C134.423 132.52 135.713 131.935 136.703 130.765C137.693 129.595 138.188 128.125 138.188 126.355C138.188 124.555 137.678 123.085 136.658 121.945C135.668 120.805 134.378 120.235 132.788 120.235C131.228 120.235 129.938 120.805 128.918 121.945C127.928 123.085 127.433 124.555 127.433 126.355ZM159.88 139.765C156.94 139.765 154.69 138.895 153.13 137.155C151.57 135.385 150.79 132.865 150.79 129.595V113.8H158.305V127.075C158.305 128.725 158.59 130.06 159.16 131.08C159.76 132.07 160.735 132.565 162.085 132.565C163.405 132.565 164.455 132.07 165.235 131.08C166.045 130.09 166.45 128.755 166.45 127.075V113.8H173.965V131.125C173.965 133.045 174.025 134.56 174.145 135.67C174.295 136.75 174.505 137.86 174.775 139H167.305C167.095 138.04 166.99 137.365 166.99 136.975C166.99 136.645 167.035 136.3 167.125 135.94H166.81C166.15 137.17 165.265 138.115 164.155 138.775C163.075 139.435 161.65 139.765 159.88 139.765ZM191.371 139.765C188.851 139.765 186.571 139.225 184.531 138.145C182.521 137.035 180.931 135.49 179.761 133.51C178.621 131.5 178.051 129.175 178.051 126.535C178.051 123.985 178.591 121.69 179.671 119.65C180.751 117.61 182.251 116.005 184.171 114.835C186.121 113.665 188.326 113.08 190.786 113.08C193.096 113.08 195.181 113.62 197.041 114.7C198.931 115.75 200.416 117.31 201.496 119.38C202.606 121.45 203.161 123.925 203.161 126.805V128.56H185.521C185.851 130.03 186.541 131.14 187.591 131.89C188.671 132.64 189.901 133.015 191.281 133.015C192.301 133.015 193.231 132.76 194.071 132.25C194.941 131.74 195.616 130.945 196.096 129.865L203.161 132.745C202.321 134.755 200.851 136.435 198.751 137.785C196.681 139.105 194.221 139.765 191.371 139.765ZM195.646 123.655C195.376 122.245 194.806 121.195 193.936 120.505C193.096 119.815 192.031 119.47 190.741 119.47C189.481 119.47 188.431 119.845 187.591 120.595C186.781 121.345 186.211 122.365 185.881 123.655H195.646ZM227.67 139.765C225.36 139.765 223.35 139.195 221.64 138.055C219.93 136.885 218.61 135.295 217.68 133.285C216.78 131.245 216.33 128.935 216.33 126.355C216.33 123.625 216.825 121.27 217.815 119.29C218.835 117.28 220.2 115.75 221.91 114.7C223.62 113.62 225.51 113.08 227.58 113.08C230.79 113.08 233.115 114.4 234.555 117.04H234.87C234.72 113.68 234.645 109 234.645 103H242.16V131.125C242.16 133.045 242.22 134.56 242.34 135.67C242.49 136.75 242.7 137.86 242.97 139H235.545C235.275 137.74 235.17 136.795 235.23 136.165H234.915C233.445 138.565 231.03 139.765 227.67 139.765ZM224.07 126.355C224.07 128.125 224.565 129.595 225.555 130.765C226.545 131.935 227.85 132.52 229.47 132.52C231.06 132.52 232.35 131.935 233.34 130.765C234.33 129.595 234.825 128.125 234.825 126.355C234.825 124.555 234.315 123.085 233.295 121.945C232.305 120.805 231.015 120.235 229.425 120.235C227.865 120.235 226.575 120.805 225.555 121.945C224.565 123.085 224.07 124.555 224.07 126.355ZM259.574 139.765C257.054 139.765 254.774 139.225 252.734 138.145C250.724 137.035 249.134 135.49 247.964 133.51C246.824 131.5 246.254 129.175 246.254 126.535C246.254 123.985 246.794 121.69 247.874 119.65C248.954 117.61 250.454 116.005 252.374 114.835C254.324 113.665 256.529 113.08 258.989 113.08C261.299 113.08 263.384 113.62 265.244 114.7C267.134 115.75 268.619 117.31 269.699 119.38C270.809 121.45 271.364 123.925 271.364 126.805V128.56H253.724C254.054 130.03 254.744 131.14 255.794 131.89C256.874 132.64 258.104 133.015 259.484 133.015C260.504 133.015 261.434 132.76 262.274 132.25C263.144 131.74 263.819 130.945 264.299 129.865L271.364 132.745C270.524 134.755 269.054 136.435 266.954 137.785C264.884 139.105 262.424 139.765 259.574 139.765ZM263.849 123.655C263.579 122.245 263.009 121.195 262.139 120.505C261.299 119.815 260.234 119.47 258.944 119.47C257.684 119.47 256.634 119.845 255.794 120.595C254.984 121.345 254.414 122.365 254.084 123.655H263.849ZM50.5923 189.765C48.1023 189.765 45.8373 189.225 43.7973 188.145C41.7873 187.065 40.1973 185.52 39.0273 183.51C37.8573 181.5 37.2723 179.145 37.2723 176.445C37.2723 173.745 37.8423 171.39 38.9823 169.38C40.1223 167.34 41.6823 165.78 43.6623 164.7C45.6423 163.62 47.8623 163.08 50.3223 163.08C53.2023 163.08 55.7223 163.815 57.8823 165.285C60.0423 166.725 61.5573 168.69 62.4273 171.18L55.4073 174.06C54.9873 172.74 54.3123 171.78 53.3823 171.18C52.4823 170.58 51.4623 170.28 50.3223 170.28C48.7623 170.28 47.4873 170.865 46.4973 172.035C45.5073 173.205 45.0123 174.66 45.0123 176.4C45.0123 178.26 45.5523 179.76 46.6323 180.9C47.7423 182.01 49.0623 182.565 50.5923 182.565C51.7023 182.565 52.7223 182.265 53.6523 181.665C54.6123 181.035 55.3323 180.075 55.8123 178.785L62.8773 181.665C62.0073 184.155 60.4773 186.135 58.2873 187.605C56.0973 189.045 53.5323 189.765 50.5923 189.765ZM77.9671 189.765C75.3871 189.765 73.0921 189.21 71.0821 188.1C69.1021 186.96 67.5571 185.385 66.4471 183.375C65.3371 181.335 64.7821 179.025 64.7821 176.445C64.7821 173.865 65.3371 171.57 66.4471 169.56C67.5571 167.52 69.1171 165.93 71.1271 164.79C73.1371 163.65 75.4171 163.08 77.9671 163.08C80.5171 163.08 82.7821 163.65 84.7621 164.79C86.7721 165.93 88.3321 167.52 89.4421 169.56C90.5521 171.57 91.1071 173.865 91.1071 176.445C91.1071 179.025 90.5521 181.335 89.4421 183.375C88.3321 185.385 86.7721 186.96 84.7621 188.1C82.7821 189.21 80.5171 189.765 77.9671 189.765ZM72.5671 176.445C72.5671 178.245 73.0621 179.715 74.0521 180.855C75.0721 181.995 76.3771 182.565 77.9671 182.565C79.5271 182.565 80.8021 181.995 81.7921 180.855C82.8121 179.685 83.3221 178.215 83.3221 176.445C83.3221 174.615 82.8271 173.13 81.8371 171.99C80.8471 170.85 79.5571 170.28 77.9671 170.28C76.3771 170.28 75.0721 170.865 74.0521 172.035C73.0621 173.175 72.5671 174.645 72.5671 176.445ZM95.1381 163.8H102.563C102.563 165.27 102.488 166.485 102.338 167.445H102.653C103.523 165.975 104.603 164.88 105.893 164.16C107.213 163.44 108.623 163.08 110.123 163.08C111.713 163.08 113.168 163.47 114.488 164.25C115.808 165 116.843 166.125 117.593 167.625C118.373 169.125 118.763 170.94 118.763 173.07V189H111.248V176.4C111.248 175.29 111.173 174.315 111.023 173.475C110.903 172.635 110.543 171.9 109.943 171.27C109.373 170.61 108.488 170.28 107.288 170.28C105.998 170.28 104.903 170.745 104.003 171.675C103.103 172.575 102.653 174.15 102.653 176.4V189H95.1381V163.8ZM125.905 189C125.905 180.84 125.995 174.66 126.175 170.46C125.155 170.58 123.82 170.64 122.17 170.64V163.8C123.94 163.8 125.275 163.86 126.175 163.98C125.995 163.38 125.905 162.525 125.905 161.415C125.905 158.175 126.82 155.835 128.65 154.395C130.51 152.955 132.7 152.235 135.22 152.235C136.72 152.235 138.04 152.415 139.18 152.775V158.985C138.22 158.745 137.47 158.625 136.93 158.625C135.85 158.625 135.055 158.82 134.545 159.21C134.035 159.57 133.72 160.005 133.6 160.515C133.48 160.995 133.42 161.595 133.42 162.315C133.42 163.035 133.33 163.59 133.15 163.98C134.38 163.86 136.225 163.8 138.685 163.8V170.64C136.345 170.64 134.5 170.58 133.15 170.46C133.33 174.66 133.42 180.84 133.42 189H125.905ZM142.072 163.8H149.587V189H142.072V163.8ZM145.897 161.37C144.637 161.37 143.572 160.935 142.702 160.065C141.862 159.195 141.442 158.13 141.442 156.87C141.442 155.67 141.862 154.65 142.702 153.81C143.572 152.97 144.637 152.55 145.897 152.55C147.127 152.55 148.162 152.985 149.002 153.855C149.842 154.695 150.262 155.7 150.262 156.87C150.262 158.13 149.842 159.195 149.002 160.065C148.162 160.935 147.127 161.37 145.897 161.37ZM162.234 189.765C160.734 189.765 159.324 189.48 158.004 188.91C156.684 188.34 155.619 187.485 154.809 186.345C153.999 185.175 153.594 183.765 153.594 182.115C153.594 179.955 154.284 178.305 155.664 177.165C157.074 175.995 158.979 175.155 161.379 174.645C163.779 174.135 165.399 173.775 166.239 173.565C167.109 173.325 167.724 173.07 168.084 172.8C168.474 172.5 168.669 172.095 168.669 171.585C168.669 170.835 168.384 170.25 167.814 169.83C167.244 169.38 166.479 169.155 165.519 169.155C164.559 169.155 163.704 169.44 162.954 170.01C162.204 170.55 161.649 171.435 161.289 172.665L154.314 170.325C155.064 167.775 156.459 165.93 158.499 164.79C160.569 163.65 162.999 163.08 165.789 163.08C169.179 163.08 171.759 163.875 173.529 165.465C175.329 167.025 176.229 169.275 176.229 172.215V181.125C176.229 183.015 176.289 184.53 176.409 185.67C176.559 186.78 176.769 187.89 177.039 189H169.569C169.359 188.43 169.254 187.86 169.254 187.29C169.254 186.9 169.299 186.465 169.389 185.985H169.074C168.474 187.215 167.544 188.16 166.284 188.82C165.054 189.45 163.704 189.765 162.234 189.765ZM161.829 181.89C161.829 182.61 162.069 183.15 162.549 183.51C163.059 183.87 163.719 184.05 164.529 184.05C165.789 184.05 166.794 183.63 167.544 182.79C168.324 181.95 168.714 180.93 168.714 179.73V178.2L165.384 179.055L164.169 179.37C162.609 179.79 161.829 180.63 161.829 181.89ZM181.578 163.8H189.003C189.003 165.27 188.928 166.485 188.778 167.445H189.093C189.963 165.975 191.043 164.88 192.333 164.16C193.653 163.44 195.063 163.08 196.563 163.08C198.153 163.08 199.608 163.47 200.928 164.25C202.248 165 203.283 166.125 204.033 167.625C204.813 169.125 205.203 170.94 205.203 173.07V189H197.688V176.4C197.688 175.29 197.613 174.315 197.463 173.475C197.343 172.635 196.983 171.9 196.383 171.27C195.813 170.61 194.928 170.28 193.728 170.28C192.438 170.28 191.343 170.745 190.443 171.675C189.543 172.575 189.093 174.15 189.093 176.4V189H181.578V163.8ZM222.331 189.765C219.841 189.765 217.576 189.225 215.536 188.145C213.526 187.065 211.936 185.52 210.766 183.51C209.596 181.5 209.011 179.145 209.011 176.445C209.011 173.745 209.581 171.39 210.721 169.38C211.861 167.34 213.421 165.78 215.401 164.7C217.381 163.62 219.601 163.08 222.061 163.08C224.941 163.08 227.461 163.815 229.621 165.285C231.781 166.725 233.296 168.69 234.166 171.18L227.146 174.06C226.726 172.74 226.051 171.78 225.121 171.18C224.221 170.58 223.201 170.28 222.061 170.28C220.501 170.28 219.226 170.865 218.236 172.035C217.246 173.205 216.751 174.66 216.751 176.4C216.751 178.26 217.291 179.76 218.371 180.9C219.481 182.01 220.801 182.565 222.331 182.565C223.441 182.565 224.461 182.265 225.391 181.665C226.351 181.035 227.071 180.075 227.551 178.785L234.616 181.665C233.746 184.155 232.216 186.135 230.026 187.605C227.836 189.045 225.271 189.765 222.331 189.765ZM249.84 189.765C247.32 189.765 245.04 189.225 243 188.145C240.99 187.035 239.4 185.49 238.23 183.51C237.09 181.5 236.52 179.175 236.52 176.535C236.52 173.985 237.06 171.69 238.14 169.65C239.22 167.61 240.72 166.005 242.64 164.835C244.59 163.665 246.795 163.08 249.255 163.08C251.565 163.08 253.65 163.62 255.51 164.7C257.4 165.75 258.885 167.31 259.965 169.38C261.075 171.45 261.63 173.925 261.63 176.805V178.56H243.99C244.32 180.03 245.01 181.14 246.06 181.89C247.14 182.64 248.37 183.015 249.75 183.015C250.77 183.015 251.7 182.76 252.54 182.25C253.41 181.74 254.085 180.945 254.565 179.865L261.63 182.745C260.79 184.755 259.32 186.435 257.22 187.785C255.15 189.105 252.69 189.765 249.84 189.765ZM254.115 173.655C253.845 172.245 253.275 171.195 252.405 170.505C251.565 169.815 250.5 169.47 249.21 169.47C247.95 169.47 246.9 169.845 246.06 170.595C245.25 171.345 244.68 172.365 244.35 173.655H254.115Z" fill="#022A1C"/>
</g>
<defs>
<clipPath id="clip0_851_19853">
<rect width="298" height="356" fill="white" transform="translate(0.599609)"/>
</clipPath>
<clipPath id="clip1_851_19853">
<rect width="127.745" height="31.3724" fill="white" transform="translate(85.3506 264)"/>
</clipPath>
</defs>
</svg>
