<svg width="298" height="356" viewBox="0 0 298 356" fill="none" xmlns="http://www.w3.org/2000/svg">
<g clip-path="url(#clip0_180_14888)">
<mask id="mask0_180_14888" style="mask-type:alpha" maskUnits="userSpaceOnUse" x="0" y="0" width="298" height="356">
<path d="M165.394 5.31135L282.022 77.0451C291.49 82.8682 297.258 93.1871 297.258 104.302V251.361C297.258 262.476 291.49 272.795 282.022 278.618L165.394 350.351C155.112 356.675 142.146 356.675 131.864 350.351L15.2353 278.618C5.76772 272.795 0 262.476 0 251.361L0 104.302C0 93.1871 5.76772 82.8682 15.2353 77.0451L131.864 5.31135C142.146 -1.01264 155.112 -1.01264 165.394 5.31135Z" fill="white"/>
</mask>
<g mask="url(#mask0_180_14888)">
<path d="M165.394 5.31135L282.022 77.0451C291.49 82.8682 297.258 93.1871 297.258 104.302V251.361C297.258 262.476 291.49 272.795 282.022 278.618L165.394 350.351C155.112 356.675 142.146 356.675 131.864 350.351L15.2353 278.618C5.76772 272.795 0 262.476 0 251.361L0 104.302C0 93.1871 5.76772 82.8682 15.2353 77.0451L131.864 5.31135C142.146 -1.01264 155.112 -1.01264 165.394 5.31135Z" fill="#FCFBF3"/>
<path d="M298 226.908H-25.8281V397.888H298V226.908Z" fill="#022A1C"/>
</g>
<line x1="-5.91113" y1="227.769" x2="303.169" y2="227.769" stroke="#022A1C"/>
<g clip-path="url(#clip1_180_14888)">
<path d="M118.323 275.119H131.257V277.532H126.172V291.098H123.375V277.532H118.312V275.119H118.323ZM130.705 279.528H133.096V281.761H133.141C133.22 281.445 133.366 281.141 133.58 280.848C133.795 280.554 134.054 280.273 134.359 280.036C134.663 279.788 135.001 279.596 135.373 279.438C135.746 279.291 136.129 279.213 136.512 279.213C136.806 279.213 137.02 279.224 137.133 279.235C137.245 279.246 137.358 279.269 137.482 279.28V281.739C137.302 281.705 137.121 281.682 136.93 281.66C136.738 281.637 136.558 281.626 136.377 281.626C135.949 281.626 135.543 281.716 135.159 281.885C134.776 282.054 134.449 282.314 134.167 282.641C133.885 282.979 133.659 283.385 133.49 283.881C133.321 284.377 133.242 284.941 133.242 285.584V291.087H130.694V279.528H130.705ZM149.199 291.098H146.696V289.486H146.65C146.335 290.072 145.872 290.535 145.252 290.884C144.632 291.234 144 291.414 143.358 291.414C141.835 291.414 140.73 291.042 140.053 290.286C139.377 289.531 139.038 288.392 139.038 286.87V279.528H141.587V286.621C141.587 287.636 141.779 288.358 142.173 288.775C142.557 289.193 143.109 289.407 143.809 289.407C144.35 289.407 144.79 289.328 145.151 289.159C145.511 288.99 145.805 288.775 146.019 288.493C146.244 288.223 146.402 287.884 146.504 287.501C146.605 287.118 146.65 286.7 146.65 286.249V279.54H149.199V291.098ZM153.541 287.388C153.62 288.133 153.901 288.651 154.386 288.956C154.883 289.249 155.469 289.407 156.157 289.407C156.394 289.407 156.664 289.384 156.969 289.35C157.273 289.317 157.566 289.238 157.826 289.136C158.096 289.035 158.311 288.877 158.491 288.674C158.66 288.471 158.739 288.212 158.728 287.884C158.717 287.557 158.593 287.287 158.367 287.084C158.142 286.87 157.86 286.712 157.51 286.576C157.16 286.452 156.766 286.34 156.315 286.249C155.864 286.159 155.413 286.058 154.95 285.956C154.477 285.855 154.014 285.719 153.574 285.573C153.135 285.426 152.74 285.223 152.39 284.964C152.041 284.716 151.759 284.389 151.556 283.994C151.342 283.599 151.24 283.114 151.24 282.528C151.24 281.896 151.398 281.378 151.702 280.949C152.007 280.521 152.402 280.182 152.864 279.923C153.338 279.664 153.856 279.483 154.431 279.37C155.007 279.269 155.559 279.213 156.078 279.213C156.676 279.213 157.251 279.28 157.792 279.404C158.333 279.528 158.829 279.731 159.269 280.024C159.709 280.306 160.07 280.679 160.363 281.13C160.656 281.581 160.837 282.133 160.916 282.776H158.254C158.13 282.167 157.86 281.75 157.42 281.547C156.98 281.333 156.473 281.231 155.909 281.231C155.728 281.231 155.514 281.242 155.266 281.276C155.018 281.31 154.792 281.366 154.567 281.445C154.353 281.524 154.172 281.648 154.014 281.806C153.868 281.964 153.789 282.167 153.789 282.426C153.789 282.742 153.901 282.99 154.116 283.182C154.33 283.374 154.612 283.532 154.961 283.667C155.311 283.791 155.706 283.904 156.157 283.994C156.608 284.084 157.07 284.186 157.544 284.287C158.006 284.389 158.457 284.524 158.908 284.671C159.359 284.817 159.754 285.02 160.104 285.28C160.453 285.539 160.735 285.855 160.95 286.238C161.164 286.621 161.277 287.106 161.277 287.67C161.277 288.358 161.119 288.933 160.803 289.418C160.487 289.892 160.081 290.286 159.585 290.58C159.089 290.873 158.525 291.098 157.916 291.234C157.307 291.369 156.698 291.437 156.1 291.437C155.367 291.437 154.691 291.358 154.071 291.189C153.45 291.019 152.909 290.771 152.458 290.444C152.007 290.106 151.646 289.689 151.387 289.193C151.127 288.696 150.992 288.099 150.969 287.411H153.541V287.388ZM161.953 279.528H163.882V276.055H166.43V279.528H168.731V281.434H166.43V287.614C166.43 287.884 166.441 288.11 166.464 288.313C166.487 288.505 166.543 288.674 166.622 288.809C166.701 288.945 166.825 289.046 166.994 289.114C167.163 289.181 167.377 289.215 167.671 289.215C167.851 289.215 168.031 289.215 168.212 289.204C168.392 289.193 168.573 289.17 168.753 289.125V291.098C168.471 291.132 168.189 291.155 167.93 291.189C167.659 291.222 167.389 291.234 167.107 291.234C166.43 291.234 165.889 291.166 165.483 291.042C165.077 290.918 164.75 290.726 164.524 290.478C164.288 290.23 164.141 289.926 164.051 289.553C163.972 289.181 163.915 288.753 163.904 288.279V281.457H161.976V279.528H161.953ZM170.535 279.528H172.948V281.096H172.993C173.354 280.419 173.85 279.946 174.493 279.652C175.136 279.359 175.824 279.213 176.579 279.213C177.493 279.213 178.282 279.37 178.959 279.697C179.635 280.013 180.199 280.453 180.65 281.017C181.101 281.581 181.428 282.235 181.654 282.979C181.879 283.723 181.992 284.524 181.992 285.37C181.992 286.148 181.891 286.903 181.688 287.625C181.485 288.358 181.18 289.001 180.774 289.565C180.368 290.129 179.85 290.568 179.218 290.907C178.587 291.245 177.854 291.414 176.997 291.414C176.624 291.414 176.252 291.38 175.88 291.313C175.508 291.245 175.147 291.132 174.809 290.986C174.471 290.839 174.144 290.647 173.862 290.411C173.568 290.174 173.332 289.903 173.129 289.599H173.083V295.372H170.535V279.528ZM179.444 285.325C179.444 284.806 179.376 284.298 179.241 283.802C179.105 283.306 178.902 282.878 178.632 282.494C178.361 282.111 178.023 281.806 177.628 281.581C177.222 281.355 176.76 281.231 176.241 281.231C175.17 281.231 174.358 281.603 173.817 282.348C173.275 283.092 173.005 284.084 173.005 285.325C173.005 285.911 173.072 286.452 173.219 286.949C173.365 287.445 173.568 287.873 173.862 288.234C174.144 288.595 174.482 288.877 174.877 289.08C175.271 289.294 175.734 289.396 176.252 289.396C176.839 289.396 177.324 289.272 177.73 289.035C178.136 288.798 178.463 288.482 178.722 288.11C178.981 287.727 179.173 287.298 179.286 286.813C179.387 286.328 179.444 285.832 179.444 285.325ZM183.943 275.119H186.492V277.532H183.943V275.119ZM183.943 279.528H186.492V291.098H183.943V279.528ZM188.77 275.119H191.318V291.098H188.77V275.119ZM199.133 291.414C198.208 291.414 197.385 291.256 196.664 290.952C195.942 290.647 195.333 290.219 194.825 289.689C194.329 289.148 193.946 288.505 193.686 287.76C193.427 287.016 193.292 286.193 193.292 285.302C193.292 284.422 193.427 283.611 193.686 282.866C193.946 282.122 194.329 281.479 194.825 280.938C195.322 280.397 195.942 279.979 196.664 279.675C197.385 279.37 198.208 279.213 199.133 279.213C200.058 279.213 200.881 279.37 201.603 279.675C202.325 279.979 202.934 280.408 203.441 280.938C203.937 281.479 204.321 282.122 204.58 282.866C204.839 283.611 204.975 284.422 204.975 285.302C204.975 286.193 204.839 287.016 204.58 287.76C204.321 288.505 203.937 289.148 203.441 289.689C202.945 290.23 202.325 290.647 201.603 290.952C200.881 291.256 200.058 291.414 199.133 291.414ZM199.133 289.396C199.697 289.396 200.193 289.272 200.61 289.035C201.028 288.798 201.366 288.482 201.637 288.099C201.907 287.715 202.099 287.276 202.234 286.791C202.358 286.306 202.426 285.81 202.426 285.302C202.426 284.806 202.358 284.321 202.234 283.825C202.11 283.329 201.907 282.9 201.637 282.517C201.366 282.133 201.028 281.829 200.61 281.592C200.193 281.355 199.697 281.231 199.133 281.231C198.569 281.231 198.073 281.355 197.656 281.592C197.239 281.829 196.9 282.145 196.63 282.517C196.359 282.9 196.167 283.329 196.032 283.825C195.908 284.321 195.84 284.806 195.84 285.302C195.84 285.81 195.908 286.306 196.032 286.791C196.156 287.276 196.359 287.715 196.63 288.099C196.9 288.482 197.239 288.798 197.656 289.035C198.073 289.283 198.569 289.396 199.133 289.396ZM205.719 279.528H207.647V276.055H210.196V279.528H212.496V281.434H210.196V287.614C210.196 287.884 210.207 288.11 210.23 288.313C210.252 288.505 210.309 288.674 210.388 288.809C210.466 288.945 210.591 289.046 210.76 289.114C210.929 289.181 211.143 289.215 211.436 289.215C211.617 289.215 211.797 289.215 211.978 289.204C212.158 289.193 212.338 289.17 212.519 289.125V291.098C212.237 291.132 211.955 291.155 211.696 291.189C211.425 291.222 211.154 291.234 210.872 291.234C210.196 291.234 209.655 291.166 209.249 291.042C208.843 290.918 208.516 290.726 208.29 290.478C208.053 290.23 207.907 289.926 207.816 289.553C207.737 289.181 207.681 288.753 207.67 288.279V281.457H205.741V279.528H205.719Z" fill="white"/>
<path d="M115.345 275.119H103.662L100.054 264L96.4339 275.119L84.751 275.108L94.2123 281.987L90.5924 293.094L100.054 286.227L109.504 293.094L105.895 281.987L115.345 275.119Z" fill="#00B67A"/>
<path d="M106.707 284.501L105.895 281.987L100.054 286.227L106.707 284.501Z" fill="#005128"/>
</g>
<path d="M68.6047 131.538H77.1007C77.1007 126.402 77.1007 123.954 76.8127 118.242C79.2127 118.818 81.3727 118.818 83.4847 118.818C85.0687 118.818 96.7807 118.434 96.7807 106.29C96.7807 94.0985 85.1647 94.0985 83.5327 94.0985H68.6047V131.538ZM76.7647 101.73L77.0527 101.586C78.4927 101.97 79.5487 101.97 82.0927 101.97C83.7247 101.97 87.8527 101.97 87.8527 106.242C87.8527 110.658 83.5327 110.658 81.8527 110.658C79.4527 110.658 78.3967 110.658 77.0527 111.186L76.8127 111.09C77.1007 108.882 77.1007 106.722 76.7647 101.73ZM112.575 132.354C119.007 132.354 123.471 128.85 125.151 124.866L117.615 121.794C116.559 124.194 114.495 125.154 112.479 125.154C109.695 125.154 107.055 123.666 106.335 120.402H125.151V118.53C125.151 108.978 119.247 103.89 111.951 103.89C103.983 103.89 98.3666 110.034 98.3666 118.242C98.3666 126.834 104.511 132.354 112.575 132.354ZM106.719 115.17C107.391 112.578 109.071 110.706 111.903 110.706C114.543 110.706 116.511 112.05 117.135 115.17H106.719ZM142.102 132.354C150.358 132.354 156.118 126.546 156.118 118.146C156.118 109.794 150.358 103.89 142.102 103.89C133.798 103.89 128.038 109.794 128.038 118.146C128.038 126.546 133.798 132.354 142.102 132.354ZM136.342 118.146C136.342 114.306 138.694 111.57 142.102 111.57C145.462 111.57 147.814 114.258 147.814 118.146C147.814 121.938 145.462 124.674 142.102 124.674C138.694 124.674 136.342 121.938 136.342 118.146ZM160.418 142.098H168.434C168.434 137.538 168.482 132.978 168.29 128.034C169.538 130.242 171.938 132.354 175.874 132.354C182.066 132.354 187.97 127.122 187.97 117.954C187.97 110.37 183.89 103.89 176.498 103.89C173.33 103.89 170.834 105.09 168.434 108.642H168.098C168.386 106.914 168.338 105.81 168.338 104.658H160.418V142.098ZM168.242 118.146C168.242 114.306 170.594 111.57 174.002 111.57C177.362 111.57 179.714 114.306 179.714 118.146C179.714 121.938 177.362 124.674 174.002 124.674C170.594 124.674 168.242 121.938 168.242 118.146ZM192.34 131.538H200.356V93.1385H192.34V131.538ZM218.887 132.354C225.319 132.354 229.783 128.85 231.463 124.866L223.927 121.794C222.871 124.194 220.807 125.154 218.791 125.154C216.007 125.154 213.367 123.666 212.647 120.402H231.463V118.53C231.463 108.978 225.559 103.89 218.263 103.89C210.295 103.89 204.679 110.034 204.679 118.242C204.679 126.834 210.823 132.354 218.887 132.354ZM213.031 115.17C213.703 112.578 215.383 110.706 218.215 110.706C220.855 110.706 222.823 112.05 223.447 115.17H213.031ZM67.9104 184.538H75.9264V146.138H67.9104V184.538ZM94.3134 185.354C102.569 185.354 108.329 179.546 108.329 171.146C108.329 162.794 102.569 156.89 94.3134 156.89C86.0094 156.89 80.2494 162.794 80.2494 171.146C80.2494 179.546 86.0094 185.354 94.3134 185.354ZM88.5534 171.146C88.5534 167.306 90.9054 164.57 94.3134 164.57C97.6734 164.57 100.025 167.258 100.025 171.146C100.025 174.938 97.6734 177.674 94.3134 177.674C90.9054 177.674 88.5534 174.938 88.5534 171.146ZM118.261 184.538H128.245L137.269 157.658H128.821C126.853 163.322 125.365 168.746 123.589 175.562H123.109C121.333 168.746 119.845 163.322 117.877 157.658H109.141L118.261 184.538ZM152.301 185.354C158.733 185.354 163.197 181.85 164.877 177.866L157.341 174.794C156.285 177.194 154.221 178.154 152.205 178.154C149.421 178.154 146.781 176.666 146.061 173.402H164.877V171.53C164.877 161.978 158.973 156.89 151.677 156.89C143.709 156.89 138.093 163.034 138.093 171.242C138.093 179.834 144.237 185.354 152.301 185.354ZM146.445 168.17C147.117 165.578 148.797 163.706 151.629 163.706C154.269 163.706 156.237 165.05 156.861 168.17H146.445ZM189.82 185.354C193.804 185.354 195.916 183.77 197.212 181.274H197.548C197.212 182.426 197.452 183.242 197.74 184.538H205.708C205.18 182.426 204.844 180.602 204.844 176.138V157.658H196.828V171.818C196.828 175.418 195.004 177.674 192.172 177.674C189.052 177.674 188.14 174.938 188.14 171.818V157.658H180.124V174.506C180.124 181.418 183.484 185.354 189.82 185.354ZM220.627 185.354C227.395 185.354 231.667 181.994 231.667 176.426C231.667 170.426 226.483 169.034 223.987 168.314L222.115 167.786C220.147 167.21 217.939 166.586 217.939 165.146C217.939 164.09 218.899 163.322 220.339 163.322C222.259 163.322 223.171 164.666 223.699 166.154L231.043 163.754C229.939 159.818 226.147 156.89 220.483 156.89C214.147 156.89 209.923 160.49 209.923 165.674C209.923 170.426 213.427 172.634 217.027 173.738L220.003 174.65C221.395 175.082 223.123 175.61 223.123 177.098C223.123 178.346 221.875 178.826 220.531 178.826C219.091 178.826 217.267 178.202 216.115 175.37L208.675 177.77C209.875 182.33 214.195 185.354 220.627 185.354Z" fill="#022A1C"/>
</g>
<defs>
<clipPath id="clip0_180_14888">
<rect width="298" height="356" fill="white"/>
</clipPath>
<clipPath id="clip1_180_14888">
<rect width="127.745" height="31.3724" fill="white" transform="translate(84.751 264)"/>
</clipPath>
</defs>
</svg>
